<svg preserveAspectRatio="none" overflow="visible" style="display: block;" width="30" height="30" viewBox="0 0 30 30" fill="none" xmlns="http://www.w3.org/2000/svg">
<g id="Group 20">
<circle id="Ellipse 2" cx="15" cy="15" r="15" fill="#00696F" fill-opacity="0.15"/>
<path id="Icon" d="M7 22V20H9V13C9 11.6167 9.41667 10.3875 10.25 9.3125C11.0833 8.2375 12.1667 7.53333 13.5 7.2V6.5C13.5 6.08333 13.6458 5.72917 13.9375 5.4375C14.2292 5.14583 14.5833 5 15 5C15.4167 5 15.7708 5.14583 16.0625 5.4375C16.3542 5.72917 16.5 6.08333 16.5 6.5V7.2C17.8333 7.53333 18.9167 8.2375 19.75 9.3125C20.5833 10.3875 21 11.6167 21 13V20H23V22H7V22M15 14.5V14.5V14.5V14.5V14.5V14.5V14.5V14.5V14.5M15 25C14.45 25 13.9792 24.8042 13.5875 24.4125C13.1958 24.0208 13 23.55 13 23H17C17 23.55 16.8042 24.0208 16.4125 24.4125C16.0208 24.8042 15.55 25 15 25V25M11 20H19V13C19 11.9 18.6083 10.9583 17.825 10.175C17.0417 9.39167 16.1 9 15 9C13.9 9 12.9583 9.39167 12.175 10.175C11.3917 10.9583 11 11.9 11 13V20V20" fill="#0B1C30"/>
</g>
</svg>
