<svg preserveAspectRatio="none" overflow="visible" style="display: block;" width="14" height="14" viewBox="0 0 14 14" fill="none" xmlns="http://www.w3.org/2000/svg">
<g id="Container">
<path id="Symbol" d="M2.05078 2.05078L1.12109 1.12109C0.902344 0.920573 0.665365 0.875 0.410156 0.984375C0.154948 1.07552 0.0182292 1.27604 0 1.58594V4.59375C0.0364583 4.99479 0.255208 5.21354 0.65625 5.25H3.66406C3.97396 5.23177 4.17448 5.09505 4.26562 4.83984C4.375 4.58464 4.32943 4.34766 4.12891 4.12891L3.28125 3.28125C4.26562 2.29688 5.50521 1.78646 7 1.75C8.49479 1.78646 9.73438 2.29688 10.7188 3.28125C11.7031 4.26562 12.2135 5.50521 12.25 7C12.2135 8.49479 11.7031 9.73438 10.7188 10.7188C9.73438 11.7031 8.49479 12.2135 7 12.25C5.86979 12.2318 4.86719 11.9219 3.99219 11.3203C3.79167 11.1745 3.57292 11.1198 3.33594 11.1562C3.11719 11.2109 2.9349 11.3385 2.78906 11.5391C2.64323 11.7396 2.58854 11.9492 2.625 12.168C2.67969 12.4049 2.80729 12.5964 3.00781 12.7422C4.15625 13.5625 5.48698 13.9818 7 14C8.3125 13.9818 9.48828 13.6628 10.5273 13.043C11.5846 12.4232 12.4232 11.5846 13.043 10.5273C13.6628 9.48828 13.9818 8.3125 14 7C13.9818 5.6875 13.6628 4.51172 13.043 3.47266C12.4232 2.41536 11.5846 1.57682 10.5273 0.957031C9.48828 0.33724 8.3125 0.0182292 7 0C6.03385 0 5.1224 0.182292 4.26562 0.546875C3.42708 0.911458 2.6888 1.41276 2.05078 2.05078V2.05078V2.05078M7 3.5C6.59896 3.53646 6.38021 3.75521 6.34375 4.15625V7C6.34375 7.18229 6.40755 7.33724 6.53516 7.46484L8.50391 9.43359C8.8138 9.6888 9.1237 9.6888 9.43359 9.43359C9.6888 9.1237 9.6888 8.8138 9.43359 8.50391L7.65625 6.72656V4.15625C7.61979 3.75521 7.40104 3.53646 7 3.5V3.5V3.5" fill="#EAB308"/>
</g>
</svg>
