<svg preserveAspectRatio="none" overflow="visible" style="display: block;" width="12.5" height="10" viewBox="0 0 12.5 10" fill="none" xmlns="http://www.w3.org/2000/svg">
<g id="Container">
<path id="Symbol" d="M1.875 2.5C1.875 2.04427 1.98568 1.6276 2.20703 1.25V1.25C2.42839 0.872396 2.73438 0.566406 3.125 0.332031C3.51562 0.110677 3.93229 0 4.375 0C4.81771 0 5.23438 0.110677 5.625 0.332031C6.01562 0.566406 6.32161 0.872396 6.54297 1.25C6.76432 1.6276 6.875 2.04427 6.875 2.5C6.875 2.95573 6.76432 3.3724 6.54297 3.75C6.32161 4.1276 6.01562 4.43359 5.625 4.66797C5.23438 4.88932 4.81771 5 4.375 5C3.93229 5 3.51562 4.88932 3.125 4.66797C2.73438 4.43359 2.42839 4.1276 2.20703 3.75C1.98568 3.3724 1.875 2.95573 1.875 2.5V2.5V2.5M0 9.41406C0.0260417 8.4375 0.364583 7.61719 1.01562 6.95312V6.95312C1.67969 6.30208 2.5 5.96354 3.47656 5.9375H5.27344C6.25 5.96354 7.07031 6.30208 7.73438 6.95312C8.38542 7.61719 8.72396 8.4375 8.75 9.41406C8.75 9.58333 8.69141 9.72005 8.57422 9.82422C8.47005 9.94141 8.33333 10 8.16406 10H0.585938C0.416667 10 0.279948 9.94141 0.175781 9.82422C0.0585938 9.72005 0 9.58333 0 9.41406V9.41406V9.41406M11.8945 10H9.19922C9.31641 9.81771 9.375 9.60938 9.375 9.375V9.21875C9.375 8.61979 9.2513 8.06641 9.00391 7.55859C8.76953 7.05078 8.4375 6.61458 8.00781 6.25V6.25C8.0599 6.25 8.10547 6.25 8.14453 6.25H9.35547C10.2409 6.27604 10.9831 6.58203 11.582 7.16797C12.168 7.76693 12.474 8.50911 12.5 9.39453C12.5 9.5638 12.4414 9.70703 12.3242 9.82422C12.207 9.94141 12.0638 10 11.8945 10V10V10M8.4375 5C7.8125 4.98698 7.29818 4.77214 6.89453 4.35547C7.28516 3.82161 7.48698 3.20312 7.5 2.5C7.5 1.96615 7.38281 1.48438 7.14844 1.05469C7.51302 0.78125 7.94271 0.638021 8.4375 0.625C9.0625 0.638021 9.57682 0.852865 9.98047 1.26953C10.3971 1.67318 10.612 2.1875 10.625 2.8125C10.612 3.4375 10.3971 3.95182 9.98047 4.35547C9.57682 4.77214 9.0625 4.98698 8.4375 5V5V5" fill="#6B7280"/>
</g>
</svg>
