<svg preserveAspectRatio="none" overflow="visible" style="display: block;" width="16.6667" height="16.6667" viewBox="0 0 16.6667 16.6667" fill="none" xmlns="http://www.w3.org/2000/svg">
<g id="Container">
<path id="Icon" d="M11.25 7.5C11.5972 7.5 11.8924 7.37847 12.1354 7.13542C12.3785 6.89236 12.5 6.59722 12.5 6.25C12.5 5.90278 12.3785 5.60764 12.1354 5.36458C11.8924 5.12153 11.5972 5 11.25 5C10.9028 5 10.6076 5.12153 10.3646 5.36458C10.1215 5.60764 10 5.90278 10 6.25C10 6.59722 10.1215 6.89236 10.3646 7.13542C10.6076 7.37847 10.9028 7.5 11.25 7.5V7.5M5.41667 7.5C5.76389 7.5 6.05903 7.37847 6.30208 7.13542C6.54514 6.89236 6.66667 6.59722 6.66667 6.25C6.66667 5.90278 6.54514 5.60764 6.30208 5.36458C6.05903 5.12153 5.76389 5 5.41667 5C5.06944 5 4.77431 5.12153 4.53125 5.36458C4.28819 5.60764 4.16667 5.90278 4.16667 6.25C4.16667 6.59722 4.28819 6.89236 4.53125 7.13542C4.77431 7.37847 5.06944 7.5 5.41667 7.5V7.5M8.33333 12.9167C9.27778 12.9167 10.1354 12.6493 10.9062 12.1146C11.6771 11.5799 12.2361 10.875 12.5833 10H11.2083C10.9028 10.5139 10.4965 10.9201 9.98958 11.2188C9.48264 11.5174 8.93056 11.6667 8.33333 11.6667C7.73611 11.6667 7.18403 11.5174 6.67708 11.2188C6.17014 10.9201 5.76389 10.5139 5.45833 10H4.08333C4.43056 10.875 4.98958 11.5799 5.76042 12.1146C6.53125 12.6493 7.38889 12.9167 8.33333 12.9167V12.9167M8.33333 16.6667C7.18056 16.6667 6.09722 16.4479 5.08333 16.0104C4.06944 15.5729 3.1875 14.9792 2.4375 14.2292C1.6875 13.4792 1.09375 12.5972 0.65625 11.5833C0.21875 10.5694 0 9.48611 0 8.33333C0 7.18056 0.21875 6.09722 0.65625 5.08333C1.09375 4.06944 1.6875 3.1875 2.4375 2.4375C3.1875 1.6875 4.06944 1.09375 5.08333 0.65625C6.09722 0.21875 7.18056 0 8.33333 0C9.48611 0 10.5694 0.21875 11.5833 0.65625C12.5972 1.09375 13.4792 1.6875 14.2292 2.4375C14.9792 3.1875 15.5729 4.06944 16.0104 5.08333C16.4479 6.09722 16.6667 7.18056 16.6667 8.33333C16.6667 9.48611 16.4479 10.5694 16.0104 11.5833C15.5729 12.5972 14.9792 13.4792 14.2292 14.2292C13.4792 14.9792 12.5972 15.5729 11.5833 16.0104C10.5694 16.4479 9.48611 16.6667 8.33333 16.6667V16.6667M8.33333 8.33333V8.33333V8.33333V8.33333V8.33333V8.33333V8.33333V8.33333V8.33333V8.33333M8.33333 15C10.1944 15 11.7708 14.3542 13.0625 13.0625C14.3542 11.7708 15 10.1944 15 8.33333C15 6.47222 14.3542 4.89583 13.0625 3.60417C11.7708 2.3125 10.1944 1.66667 8.33333 1.66667C6.47222 1.66667 4.89583 2.3125 3.60417 3.60417C2.3125 4.89583 1.66667 6.47222 1.66667 8.33333C1.66667 10.1944 2.3125 11.7708 3.60417 13.0625C4.89583 14.3542 6.47222 15 8.33333 15V15" fill="#3C494A"/>
</g>
</svg>
