<svg preserveAspectRatio="none" overflow="visible" style="display: block;" width="30" height="30" viewBox="0 0 30 30" fill="none" xmlns="http://www.w3.org/2000/svg">
<g id="Group 21">
<circle id="Ellipse 2" cx="15" cy="15" r="15" fill="#00696F" fill-opacity="0.15"/>
<g id="fa6-brands:signal-messenger" clip-path="url(#clip0_0_64)">
<path id="Vector" d="M15 7C15.4156 7 15.8219 7.03125 16.2219 7.09375L16.1062 7.83438C15.7469 7.77813 15.375 7.75 15 7.75C14.625 7.75 14.2531 7.77813 13.8938 7.83438L13.7781 7.09375C14.1781 7.03125 14.5844 7 15 7ZM16.9 7.22813L16.7219 7.95625C17.4531 8.13438 18.1406 8.42188 18.7656 8.80313L19.1562 8.1625C18.4656 7.74375 17.7062 7.425 16.9 7.22813ZM19.7281 8.54688L19.2844 9.15C19.8813 9.5875 20.4094 10.1156 20.85 10.7156L21.4563 10.2719C20.9688 9.6125 20.3875 9.03125 19.7281 8.54688ZM21.8375 10.8469L21.1969 11.2375C21.5781 11.8625 21.8656 12.55 22.0437 13.2812L22.7719 13.1031C22.575 12.2969 22.2562 11.5375 21.8375 10.8469ZM22.9062 13.7781L22.1656 13.8938C22.2219 14.2531 22.25 14.625 22.25 15C22.25 15.375 22.2219 15.7469 22.1656 16.1062L22.9062 16.2219C22.9656 15.825 23 15.4156 23 15C23 14.5844 22.9688 14.1781 22.9062 13.7781ZM21.1969 18.7656C21.5781 18.1406 21.8656 17.4531 22.0437 16.7219L22.7719 16.9C22.575 17.7062 22.2562 18.4656 21.8375 19.1562L21.1969 18.7656ZM20.85 19.2844L21.4563 19.7281C20.9719 20.3875 20.3906 20.9719 19.7312 21.4531L19.2875 20.8469C19.8844 20.4094 20.4125 19.8813 20.8531 19.2812L20.85 19.2844ZM18.7656 21.1969L19.1562 21.8375C18.4656 22.2562 17.7062 22.575 16.9 22.7719L16.7219 22.0437C17.4531 21.8656 18.1406 21.5781 18.7656 21.1969ZM16.1062 22.1656L16.2219 22.9062C15.825 22.9656 15.4156 23 15 23C14.5844 23 14.1781 22.9688 13.7781 22.9062L13.8938 22.1656C14.2531 22.2219 14.625 22.25 15 22.25C15.375 22.25 15.7469 22.2219 16.1062 22.1656ZM13.2781 22.0437L13.1 22.7719C12.4937 22.625 11.9156 22.4094 11.3719 22.1313L10.6125 22.3094L10.4406 21.5781L11.4656 21.3375L11.7094 21.4625C12.2 21.7125 12.725 21.9094 13.275 22.0437H13.2781ZM9.8125 21.7281L9.98438 22.4594L8.68438 22.7625C7.8125 22.9625 7.0375 22.1875 7.2375 21.3188L7.54062 20.0188L8.27188 20.1875L7.96875 21.4906C7.89375 21.8156 8.18437 22.1063 8.50937 22.0312L9.8125 21.7281ZM8.42188 19.5562L7.69063 19.3844L7.86875 18.625C7.59062 18.0844 7.375 17.5031 7.22813 16.8969L7.95625 16.7188C8.09063 17.2688 8.2875 17.7938 8.5375 18.2844L8.6625 18.5281L8.42188 19.5531V19.5562ZM7.83438 16.1062L7.09375 16.2219C7.03125 15.8219 7 15.4156 7 15C7 14.5844 7.03125 14.1781 7.09375 13.7781L7.83438 13.8938C7.77813 14.2531 7.75 14.625 7.75 15C7.75 15.375 7.77813 15.7469 7.83438 16.1062ZM7.95625 13.2781L7.22813 13.1C7.425 12.2937 7.74375 11.5344 8.1625 10.8438L8.80313 11.2344C8.42188 11.8594 8.13438 12.5469 7.95625 13.2781ZM9.15313 10.7125L8.54688 10.2719C9.03125 9.6125 9.6125 9.03125 10.2719 8.54688L10.7156 9.15313C10.1188 9.59063 9.59063 10.1187 9.15 10.7188L9.15313 10.7125ZM11.2375 8.8L10.8469 8.1625C11.5375 7.74375 12.2969 7.425 13.1031 7.22813L13.2812 7.95625C12.55 8.13438 11.8625 8.42188 11.2375 8.80313V8.8ZM21.5 15C21.5 18.5906 18.5906 21.5 15 21.5C13.8625 21.5 12.7906 21.2063 11.8594 20.6938C11.7687 20.6438 11.6656 20.6281 11.5656 20.65L8.675 21.325L9.35 18.4344C9.37187 18.3344 9.35625 18.2313 9.30625 18.1406C8.79375 17.2094 8.5 16.1375 8.5 15C8.5 11.4094 11.4094 8.5 15 8.5C18.5906 8.5 21.5 11.4094 21.5 15Z" fill="#0B1C30"/>
</g>
</g>
<defs>
<clipPath id="clip0_0_64">
<rect width="16" height="16" fill="white" transform="translate(7 7)"/>
</clipPath>
</defs>
</svg>
